<mxfile host="app.diagrams.net" modified="2020-12-21T05:52:17.062Z" agent="5.0 (Macintosh; Intel Mac OS X 10_15_7) AppleWebKit/537.36 (KHTML, like Gecko) Chrome/87.0.4280.88 Safari/537.36" etag="eksCtUN1rj1g9iQK-2Lo" version="14.1.1" type="github">
  <diagram id="prtHgNgQTEPvFCAcTncT" name="Page-1">
    <mxGraphModel dx="1426" dy="794" grid="1" gridSize="10" guides="1" tooltips="1" connect="1" arrows="1" fold="1" page="1" pageScale="1" pageWidth="827" pageHeight="1169" math="0" shadow="0">
      <root>
        <mxCell id="0" />
        <mxCell id="1" parent="0" />
        <mxCell id="yGT4qAdIrESVJ-ZpNesD-11" value="Actor" style="shape=umlActor;verticalLabelPosition=bottom;verticalAlign=top;html=1;outlineConnect=0;" vertex="1" parent="1">
          <mxGeometry x="399" y="230" width="30" height="60" as="geometry" />
        </mxCell>
        <mxCell id="yGT4qAdIrESVJ-ZpNesD-15" value="&lt;font style=&quot;font-size: 24px&quot;&gt;文章&lt;/font&gt;" style="shape=note;whiteSpace=wrap;html=1;backgroundOutline=1;darkOpacity=0.05;" vertex="1" parent="1">
          <mxGeometry x="374" y="370" width="80" height="100" as="geometry" />
        </mxCell>
        <mxCell id="yGT4qAdIrESVJ-ZpNesD-16" value="" style="shape=actor;whiteSpace=wrap;html=1;" vertex="1" parent="1">
          <mxGeometry x="350" y="670" width="40" height="60" as="geometry" />
        </mxCell>
        <mxCell id="yGT4qAdIrESVJ-ZpNesD-17" value="&lt;font style=&quot;font-size: 24px&quot;&gt;小程序&lt;/font&gt;" style="rounded=1;whiteSpace=wrap;html=1;" vertex="1" parent="1">
          <mxGeometry x="190" y="540" width="90" height="40" as="geometry" />
        </mxCell>
        <mxCell id="yGT4qAdIrESVJ-ZpNesD-18" value="&lt;font style=&quot;font-size: 21px&quot;&gt;商品模板&lt;/font&gt;" style="rounded=1;whiteSpace=wrap;html=1;" vertex="1" parent="1">
          <mxGeometry x="339" y="540" width="90" height="40" as="geometry" />
        </mxCell>
        <mxCell id="yGT4qAdIrESVJ-ZpNesD-19" value="&lt;font style=&quot;font-size: 21px&quot;&gt;组件模板&lt;/font&gt;" style="rounded=1;whiteSpace=wrap;html=1;" vertex="1" parent="1">
          <mxGeometry x="490" y="540" width="90" height="40" as="geometry" />
        </mxCell>
      </root>
    </mxGraphModel>
  </diagram>
</mxfile>
